<svg width="25" height="25" viewBox="0 0 25 25" fill="none" xmlns="http://www.w3.org/2000/svg">
<path d="M16.671 6.68066C14.781 6.68066 13.9823 7.58254 12.666 7.58254C11.3165 7.58254 10.2871 6.68723 8.64932 6.68723C7.0462 6.68723 5.33667 7.66598 4.25104 9.33332C2.72667 11.6846 2.98542 16.1129 5.45432 19.8854C6.33745 21.2358 7.51682 22.7503 9.0637 22.7668H9.09182C10.4362 22.7668 10.8356 21.8864 12.6857 21.8761H12.7139C14.5364 21.8761 14.902 22.7616 16.2407 22.7616H16.2689C17.8157 22.7452 19.0584 21.0671 19.9415 19.7218C20.5771 18.7543 20.8134 18.2686 21.3009 17.1741C17.7295 15.8185 17.1557 10.7555 20.6878 8.81441C19.6096 7.46441 18.0946 6.68254 16.6664 6.68254L16.671 6.68066Z" fill="white"/>
<path d="M16.2552 1.76758C15.1302 1.84398 13.8177 2.56023 13.049 3.49539C12.3515 4.34289 11.7777 5.60008 12.0027 6.8193H12.0927C13.2909 6.8193 14.5171 6.09789 15.2334 5.17351C15.9234 4.29367 16.4465 3.0468 16.2552 1.76758Z" fill="white"/>
</svg>
