<svg width="25" height="25" viewBox="0 0 25 25" fill="none" xmlns="http://www.w3.org/2000/svg">
<path d="M12.4453 2.89648C9.79315 2.89648 7.24961 3.95005 5.37424 5.82542C3.49888 7.70078 2.44531 10.2443 2.44531 12.8965C2.44531 15.5486 3.49888 18.0922 5.37424 19.9676C7.24961 21.8429 9.79315 22.8965 12.4453 22.8965C15.0975 22.8965 17.641 21.8429 19.5164 19.9676C21.3917 18.0922 22.4453 15.5486 22.4453 12.8965C22.4453 10.2443 21.3917 7.70078 19.5164 5.82542C17.641 3.95005 15.0975 2.89648 12.4453 2.89648Z" fill="#1565C0"/>
<path d="M13.7963 15.5467H16.3842L16.7906 12.9177H13.7958V11.4809C13.7958 10.3888 14.1527 9.42037 15.1742 9.42037H16.8158V7.12616C16.5274 7.08722 15.9174 7.00195 14.7648 7.00195C12.3579 7.00195 10.9469 8.27301 10.9469 11.1688V12.9177H8.47266V15.5467H10.9469V22.7725C11.4369 22.8462 11.9332 22.8962 12.4427 22.8962C12.9032 22.8962 13.3527 22.8541 13.7963 22.7941V15.5467Z" fill="white"/>
</svg>
