<svg width="177" height="138" viewBox="0 0 177 138" fill="none" xmlns="http://www.w3.org/2000/svg">
<path d="M1.96624 38.1895C2.00224 38.1845 2.03841 38.1815 2.07341 38.1785C2.5737 36.3835 3.59482 34.777 5.00774 33.5621C6.42066 32.3471 8.16192 31.5783 10.0116 31.3526C11.8614 31.1269 13.7365 31.4545 15.4001 32.294C17.0637 33.1336 18.4411 34.4473 19.3583 36.0694C19.2339 36.2336 19.1363 36.4166 19.0693 36.6114C18.3188 35.1626 17.1857 33.9472 15.7929 33.0972C14.4001 32.2473 12.801 31.7955 11.1694 31.7906C10.7245 31.7912 10.2802 31.8245 9.84026 31.8905C8.13358 32.146 6.53771 32.8909 5.24578 34.035C3.95384 35.1791 3.02148 36.6732 2.56145 38.3365C2.39568 38.3398 2.23157 38.3712 2.07634 38.4295C2.07771 38.5169 2.08472 38.604 2.09734 38.6905L2.04241 38.6966C1.57255 38.767 1.14977 39.0207 0.86687 39.4024C0.583976 39.7841 0.464043 40.2625 0.533374 40.7325C0.592392 41.1185 0.775386 41.4747 1.05461 41.7476C1.33384 42.0205 1.69401 42.1953 2.08123 42.2454C2.21523 42.2604 2.36645 42.2685 2.41545 42.2755C2.85988 44.5314 4.14404 46.5344 6.00872 47.8797C7.87339 49.225 10.1794 49.8122 12.4604 49.5225C14.7985 49.175 16.9028 47.913 18.3105 46.014C19.7181 44.115 20.3136 41.7347 19.9662 39.3966C19.9492 39.2856 19.9294 39.1745 19.9084 39.0635C20.0808 39.1565 20.2673 39.2206 20.4604 39.2535C20.4604 39.2765 20.4693 39.2986 20.4723 39.3216C20.8229 41.6775 20.2681 44.0786 18.9194 46.0418C17.5707 48.005 15.5282 49.3845 13.2033 49.9024V53.8885H12.6913V50.0015C12.6393 50.0105 12.5914 50.0214 12.5344 50.0284C12.0738 50.0961 11.6087 50.1296 11.1432 50.1285C10.7227 50.1285 10.3028 50.0992 9.8864 50.0406V53.8846H9.37444V49.9515C7.58384 49.5782 5.93687 48.7017 4.62712 47.4249C3.31738 46.1481 2.39922 44.524 1.9804 42.7435C1.48878 42.6746 1.03265 42.4487 0.680103 42.0992C0.327557 41.7497 0.0974612 41.2955 0.024341 40.8045C-0.0641419 40.2003 0.0907 39.5858 0.454761 39.0955C0.818822 38.6053 1.36227 38.2795 1.96624 38.1895Z" fill="white"/>
<path d="M16.5215 34.9639L18.0505 41.2329L15.7026 41.3198L15.6836 40.8088L17.4045 40.7449L16.0247 35.0857L16.5215 34.9639Z" fill="white"/>
<path d="M13.668 43.0156L13.6128 43.5247C13.1599 43.5261 12.7136 43.4177 12.3118 43.2087C11.91 42.9997 11.5648 42.6964 11.3059 42.3247C11.1475 41.9833 11.0644 41.6117 11.0625 41.2354C11.0606 40.859 11.14 40.4865 11.295 40.1436L11.76 40.3586C11.6393 40.6278 11.576 40.9191 11.5745 41.2141C11.5729 41.5091 11.6331 41.8011 11.751 42.0715C11.9725 42.3699 12.2619 42.6112 12.5952 42.7754C12.9286 42.9396 13.2964 43.0219 13.668 43.0156Z" fill="white"/>
<path d="M1.4104 39.7829L1.35547 39.2741C1.64838 39.2128 1.95189 39.2243 2.23926 39.3078C2.52663 39.3914 2.78901 39.5444 3.00342 39.7531C3.18506 40.0075 3.31094 40.2973 3.3728 40.6037C3.43467 40.9101 3.43101 41.226 3.3623 41.531L2.8623 41.4211C2.91288 41.1947 2.91754 40.9604 2.87598 40.7322C2.83441 40.5039 2.74752 40.2861 2.62036 40.092C2.45794 39.9477 2.26347 39.8445 2.05298 39.7907C1.84249 39.737 1.62211 39.7342 1.4104 39.7829Z" fill="white"/>
<path d="M125.664 137.794H176.258C176.258 137.794 177.189 129.918 162.683 125.911L129.283 126.111C126.671 128.966 125.999 133.404 125.664 137.794Z" fill="#0CAF60"/>
<path d="M79.4766 137.794H132.615C132.615 137.794 133.592 129.918 118.356 125.911L83.2996 126.111C80.7576 129.336 79.8286 133.404 79.4766 137.794Z" fill="#0CAF60"/>
<path d="M132.359 137.796H132.871C132.839 132.434 127.281 129.31 127.044 129.179L126.797 129.627C126.853 129.656 132.329 132.738 132.359 137.796Z" fill="white"/>
<path d="M166.272 67.7659V1.41895L166.148 1.44385C160.194 5.30485 147.236 15.773 146.467 34.135C146.467 34.134 145.574 52.4339 166.272 67.7659Z" fill="#0CAF60"/>
<path d="M69.3613 18.947L69.3464 18.9419L68.8254 18.8721C68.7944 18.8721 68.7644 18.8721 68.7344 18.8721C68.8803 18.6663 69.0663 18.4921 69.2812 18.3601C69.4962 18.2281 69.7358 18.141 69.9854 18.104C70.6744 18.06 71.3523 18.6041 71.9783 19.7261C72.1703 19.6532 72.3731 19.6123 72.5784 19.605C72.4192 19.7776 72.29 19.9756 72.1963 20.1909C72.1272 20.2137 72.0604 20.2427 71.9963 20.2771L71.7634 20.417L71.6384 20.1761C71.0904 19.1221 70.5383 18.585 70.0183 18.615C69.7679 18.6475 69.536 18.7647 69.3613 18.947Z" fill="white"/>
<path d="M60.2581 18.9858C59.6911 19.6098 59.3259 21.5508 58.9409 24.1318C58.7658 24.1201 58.5899 24.1321 58.418 24.1677C58.832 21.3677 59.2089 19.3788 59.8789 18.6418C60.091 18.342 60.3805 18.1052 60.7166 17.957C61.0526 17.8087 61.4227 17.7544 61.7871 17.7997C62.7751 18.0057 63.4509 19.1896 63.7729 19.8996C64.1799 19.1766 65.0271 17.9448 66.0671 17.9448H66.0981C66.6981 17.9588 67.252 18.3788 67.748 19.1938C67.6352 19.2641 67.5324 19.3491 67.4421 19.4467C67.4271 19.4607 67.4151 19.4757 67.4001 19.4897C66.9801 18.7837 66.5339 18.4667 66.0859 18.4567H66.0671C65.1471 18.4567 64.249 20.0136 63.979 20.6186L63.7119 21.2187L63.5029 20.6008C63.3089 20.0288 62.6029 18.5008 61.6809 18.3078C61.4051 18.2857 61.1285 18.3367 60.8787 18.4557C60.6288 18.5748 60.4147 18.7576 60.2581 18.9858Z" fill="white"/>
<path d="M18.6975 60.5569C20.5382 60.872 22.4021 61.0325 24.2695 61.0369C31.3065 61.0369 40.1936 58.6558 49.3076 49.2078C49.5016 49.0078 49.6895 48.7989 49.8745 48.5889C50.0464 48.6654 50.2272 48.72 50.4126 48.7517C50.1746 49.029 49.9292 49.2994 49.6765 49.5627C42.9915 56.4927 35.6005 60.4558 27.7075 61.3408C24.7014 61.6675 21.6647 61.5763 18.6836 61.0698C18.7257 60.9019 18.7304 60.7269 18.6975 60.5569Z" fill="white"/>
<path d="M37.6526 87.9974C37.8066 87.8724 53.2616 75.3674 70.2576 63.3234C93.1226 47.1234 107.746 39.4235 113.717 40.4535C119.239 41.4045 122.387 43.0714 124.588 46.2084C127.634 50.5514 128.709 57.8693 128.072 69.9393C127.585 79.1503 126.105 91.2145 123.385 107.912C125.442 114.45 127.499 120.727 129.177 125.711H163.577C155.455 96.5433 148.227 76.4904 141.202 63.7784C141.395 63.8063 141.591 63.8032 141.782 63.7694C148.813 76.5844 156.044 96.7063 164.16 125.898L164.25 126.222H128.812L128.754 126.048C128.492 125.272 126.066 118.054 123.208 109.012C122.354 114.218 121.381 119.867 120.283 126.012L120.246 126.223H81.2815L94.7214 78.7665C91.5498 86.4705 87.5432 93.8036 82.7734 100.634C77.1974 108.484 71.0234 114.603 64.4214 118.82C58.6116 122.585 51.9564 124.846 45.0554 125.398C44.8892 125.357 44.7188 125.336 44.5476 125.336C43.3356 125.336 42.1256 125.407 40.9136 125.395C39.8276 125.385 38.7396 125.221 37.6536 125.295L37.5586 125.232V88.0714L37.6526 87.9974ZM38.0696 125.153C58.9846 126.709 73.6864 112.538 82.3474 100.348C88.2305 91.9266 92.9375 82.7422 96.3384 73.0485L96.8284 73.1964L81.9565 125.71H119.815C124.527 99.3203 126.916 82.1103 127.562 69.9103C128.193 57.9633 127.147 50.7434 124.17 46.5004C122.056 43.4874 119.003 41.8814 113.63 40.9564C107.879 39.9664 92.9844 47.8434 70.5554 63.7374C54.2674 75.2804 39.3946 87.2473 38.0696 88.3163V125.153Z" fill="white"/>
<path d="M9.89315 52.9746C9.89315 52.9746 11.774 55.2225 13.203 53.0415C13.203 53.0415 15.8031 58.7114 30.1661 63.1174C31.3034 63.4101 32.4823 63.7486 33.703 64.1326V78.4565L30.4852 78.2004C32.1202 81.9542 34.5313 85.3194 37.5601 88.0745V125.388C37.5601 125.388 17.7271 125.306 7.69613 103.089C-0.792874 84.2886 4.04115 54.9836 9.89315 52.9746Z" fill="#0CAF60"/>
<path d="M30.1741 78.4152C26.631 77.9756 23.1814 76.9703 19.957 75.4374L20.1792 74.9762C23.4274 76.5204 26.9067 77.5212 30.479 77.9384C43.379 79.0794 54.8042 75.1593 64.5532 66.2013C82.2802 49.9113 82.8481 30.4133 82.6001 24.8253C82.4861 22.2743 81.8502 21.4064 81.3352 21.1254C81.1692 21.0354 80.983 20.989 80.7942 20.9904C80.5583 20.9932 80.3266 21.053 80.1191 21.1652L80.0022 21.2353C80.4112 23.5353 79.9281 27.5354 78.5461 33.3354L78.0461 33.2162C80.1401 25.4162 79.7132 21.0304 79.1912 20.1474C78.7912 19.6214 78.3912 19.3604 78.0112 19.3844C77.1462 19.4404 76.4111 20.9403 76.2041 21.5143L76.124 21.7353C76.395 23.9093 76.0241 27.1004 74.9951 31.5534L74.4951 31.4384C75.6251 26.5384 76.0152 23.1783 75.5542 21.1093C75.0132 19.8813 74.414 19.2264 73.812 19.2094H73.791C72.799 19.2094 71.8342 20.8792 71.5452 21.5282L71.5242 21.5744C71.9532 23.4344 71.9862 26.3324 71.5632 30.5954L71.0542 30.5443C71.5542 25.5033 71.459 22.4552 70.78 20.8192C70.455 20.1482 69.8731 19.2033 69.1121 19.0443C68.8134 19.0209 68.514 19.0768 68.2439 19.2064C67.9738 19.336 67.7428 19.5348 67.5742 19.7824C66.8262 20.6054 66.407 23.5504 65.874 27.2824C64.768 35.0484 63.0971 46.7822 56.5291 53.5912C49.4631 60.9162 42.1342 65.0302 33.6992 65.9462V65.4704C40.5652 64.7254 48.0262 61.6703 56.1592 53.2353C62.6122 46.5463 64.2692 34.9094 65.3662 27.2094C65.9312 23.2444 66.3391 20.3793 67.1931 19.4403C67.4179 19.1224 67.7245 18.8714 68.0806 18.7138C68.4366 18.5562 68.8286 18.4979 69.2151 18.5453C69.6511 18.708 70.0485 18.9595 70.3823 19.2838C70.7161 19.6081 70.9789 19.9982 71.1541 20.4293V20.4352C71.2221 20.5682 71.2832 20.6953 71.3342 20.8083C71.7652 20.0363 72.6881 18.6804 73.8191 18.6994C74.6191 18.7184 75.3401 19.4162 75.9641 20.7772C76.3111 20.0682 77.0131 18.9363 77.9741 18.8773C78.7121 18.8283 79.26 19.2723 79.927 20.4723C80.4797 20.3351 81.0636 20.4062 81.5671 20.6723C82.4881 21.1723 83.0062 22.5574 83.1062 24.8024C83.3572 30.4464 82.784 50.1383 64.894 66.5783C56.142 74.6203 46.0642 78.6542 34.7942 78.6532C34.4472 78.6532 34.0941 78.6473 33.7471 78.6383C33.6861 78.6383 33.577 78.6383 33.447 78.6383C32.3528 78.6292 31.2602 78.554 30.175 78.4132L30.1741 78.4152Z" fill="white"/>
<path d="M76.2068 20.7778L75.5957 20.9067C75.5374 20.6735 75.4227 20.4583 75.2617 20.2798L76.5618 20.0049C76.389 20.2339 76.2679 20.4976 76.2068 20.7778Z" fill="white"/>
<path d="M19.0881 36.3982L32.0571 29.8982C33.1897 29.3304 34.3906 28.9103 35.6301 28.6482L66.377 22.1582C66.2916 22.3926 66.2408 22.6382 66.2261 22.8872L63.269 23.5112C61.5686 25.5266 60.3386 27.8956 59.6689 30.446C58.7179 33.939 58.3629 39.2461 61.1689 45.9761C61.08 46.0784 61.0035 46.1908 60.9409 46.311C58.0019 39.385 58.3651 33.9222 59.3411 30.3372C59.9948 27.8923 61.1443 25.6081 62.718 23.6262L45.918 27.1721C44.6002 28.801 43.6303 30.6828 43.0681 32.7012C42.1331 36.0322 41.9061 41.3181 46.0481 47.6821L59.1111 49.843C58.9748 50.0385 58.8732 50.2561 58.811 50.4861L35.9751 46.708C34.6313 46.4859 33.3248 46.0784 32.093 45.4971C32.014 45.4611 31.935 45.423 31.856 45.384L19.0811 38.979C18.8419 38.8593 18.6408 38.6753 18.5002 38.4478C18.3597 38.2202 18.2852 37.9581 18.2852 37.6907C18.2852 37.4232 18.3597 37.1609 18.5002 36.9333C18.6408 36.7058 18.8419 36.5219 19.0811 36.4021L19.0881 36.3982ZM21.6711 39.5071L23.731 40.54C23.3125 38.6502 23.3303 36.69 23.783 34.8081L21.707 35.8491C21.5173 37.06 21.5069 38.2922 21.676 39.5061L21.6711 39.5071ZM28.0601 34.4961C28.2594 33.7351 28.5196 32.9915 28.8381 32.2722L26.5151 33.437C26.3921 33.789 26.277 34.1571 26.176 34.5461C25.5288 36.9715 25.6255 39.5352 26.4531 41.905L28.7861 43.0752C27.5526 40.3871 27.2973 37.3523 28.0649 34.4961H28.0601ZM29.033 43.196L31.585 44.4761C30.6749 42.9993 30.0756 41.3523 29.8237 39.636C29.5718 37.9197 29.6728 36.1702 30.1201 34.4941C30.4537 33.2362 30.9474 32.0262 31.5891 30.894L29.0791 32.1531C28.725 32.927 28.4381 33.7301 28.2219 34.5532C27.4521 37.4398 27.7418 40.5067 29.0381 43.1982L29.033 43.196ZM26.012 34.4961C26.098 34.1661 26.1941 33.8501 26.2971 33.5461L23.9832 34.7061C23.4914 36.651 23.4727 38.6856 23.929 40.6392L26.2341 41.7952C25.4475 39.4361 25.372 36.8977 26.0171 34.4961H26.012ZM36.093 46.031L45.593 47.603C41.552 41.241 41.7991 35.9451 42.7451 32.5891C43.2863 30.6688 44.1846 28.8675 45.3931 27.28L35.7671 29.312C34.5849 29.5623 33.4396 29.963 32.3591 30.5042L31.8591 30.7532C31.1626 31.9372 30.6307 33.2105 30.2781 34.5381C29.8243 36.2372 29.7313 38.0124 30.0054 39.7495C30.2794 41.4867 30.9144 43.1471 31.8691 44.624L32.062 44.7241L32.1541 44.769C32.2271 44.805 32.2989 44.8402 32.3779 44.8752C33.5585 45.4296 34.8108 45.8169 36.0981 46.0261L36.093 46.031ZM19.3931 38.3652L21.4841 39.4131C21.3372 38.2599 21.3486 37.0922 21.5181 35.9421L19.3931 37.0071C19.2672 37.0702 19.1614 37.167 19.0874 37.2869C19.0134 37.4067 18.9741 37.5447 18.9741 37.6855C18.9741 37.8264 19.0134 37.9644 19.0874 38.0842C19.1614 38.2041 19.2672 38.3009 19.3931 38.364V38.3652Z" fill="white"/>
<path d="M84.3943 54.0222C84.0734 54.1212 83.7902 54.3156 83.5823 54.5793L75.3672 53.2202C75.501 53.0245 75.5986 52.8063 75.6553 52.5762L84.3943 54.0222Z" fill="white"/>
<path d="M82.2029 34.2183C82.2844 33.8407 82.335 33.4571 82.354 33.0713C82.42 32.0343 82.8689 31.0022 82.8459 29.9192C82.843 29.7032 82.8067 29.489 82.738 29.2842C82.8147 28.8728 82.8966 28.4756 82.9839 28.0923C83.7253 24.6813 85.0786 21.4327 86.978 18.5042L79.5669 20.0681C79.4004 19.8289 79.1758 19.6363 78.9141 19.5083L166.079 1.10815L166.613 0.99707V68.3152L127.78 61.8892C127.81 61.6584 127.805 61.4242 127.764 61.1951L136.938 62.7131C131.838 55.3071 128.65 47.8373 127.469 40.4993C126.518 34.7336 126.856 28.8286 128.459 23.2092C130.062 17.5898 132.89 12.3955 136.74 7.99927L108.84 13.8882C105.908 17.2943 103.758 21.3012 102.54 25.6272C100.902 31.5452 100.902 37.7971 102.54 43.7151C102.427 43.7652 102.319 43.8263 102.218 43.8972C101.861 42.5622 101.576 41.2089 101.365 39.8433C100.607 35.0685 100.896 30.1858 102.214 25.5342C103.413 21.3098 105.484 17.3829 108.291 14.0061L87.4729 18.4001C85.4776 21.3667 84.0687 24.6877 83.322 28.1841C82.086 33.6561 81.7318 42.2163 86.6108 52.6753C86.5055 52.7211 86.4052 52.7774 86.311 52.8433C83.4765 47.0512 82.0678 40.6653 82.2029 34.2183ZM165.914 1.84326C162.466 4.11915 159.33 6.83622 156.586 9.92529C152.121 14.9393 146.77 23.2101 146.635 34.1401C146.511 44.1131 151.879 52.7241 156.403 58.1921C159.237 61.6103 162.431 64.7136 165.929 67.4482V1.84131L165.914 1.84326ZM128.888 22.9502C126.261 31.7832 125.621 45.8502 137.405 62.7942L165.332 67.4153C161.97 64.7375 158.892 61.7217 156.146 58.4153C151.582 52.9023 146.169 44.2153 146.294 34.1353C146.431 23.0953 151.832 14.7482 156.339 9.68921C158.914 6.80164 161.825 4.23176 165.009 2.03418L137.309 7.88013C133.411 12.2111 130.534 17.3607 128.888 22.9502Z" fill="white"/>
<path d="M8.19041 44.5125C9.67641 44.5125 6.09727 42.8437 7.19627 39.0357C8.29527 35.2277 15.2154 41.9288 20.5764 37.1278C25.9374 32.3268 17.8193 25.1277 15.7763 27.4117C13.7333 29.6957 16.2935 30.8897 14.4065 31.2117C12.5195 31.5337 1.8154 29.0906 1.9824 38.6956C1.9804 38.6996 6.70441 44.5085 8.19041 44.5125Z" fill="white"/>
<path d="M15.8477 129.974H62.7876V125.106H15.8477V129.974ZM62.4475 129.633H16.1895V125.447H62.4475V129.633Z" fill="white"/>
</svg>
