<svg width="25" height="25" viewBox="0 0 25 25" fill="none" xmlns="http://www.w3.org/2000/svg">
<path d="M22.2508 10.938H21.4453V10.8965H12.4453V14.8965H18.0968C17.2723 17.225 15.0568 18.8965 12.4453 18.8965C9.13181 18.8965 6.44531 16.21 6.44531 12.8965C6.44531 9.58298 9.13181 6.89648 12.4453 6.89648C13.9748 6.89648 15.3663 7.47348 16.4258 8.41598L19.2543 5.58748C17.4683 3.92298 15.0793 2.89648 12.4453 2.89648C6.92281 2.89648 2.44531 7.37398 2.44531 12.8965C2.44531 18.419 6.92281 22.8965 12.4453 22.8965C17.9678 22.8965 22.4453 18.419 22.4453 12.8965C22.4453 12.226 22.3763 11.5715 22.2508 10.938Z" fill="#FBC02D"/>
<path d="M3.59766 8.24198L6.88316 10.6515C7.77216 8.45048 9.92516 6.89648 12.4447 6.89648C13.9742 6.89648 15.3657 7.47348 16.4252 8.41598L19.2537 5.58748C17.4677 3.92298 15.0787 2.89648 12.4447 2.89648C8.60366 2.89648 5.27266 5.06498 3.59766 8.24198Z" fill="#E53935"/>
<path d="M12.4455 22.8968C15.0285 22.8968 17.3755 21.9083 19.15 20.3008L16.055 17.6818C15.051 18.4423 13.803 18.8968 12.4455 18.8968C9.84447 18.8968 7.63597 17.2383 6.80397 14.9238L3.54297 17.4363C5.19797 20.6748 8.55897 22.8968 12.4455 22.8968Z" fill="#4CAF50"/>
<path d="M22.2508 10.938L22.2428 10.8965H21.4453H12.4453V14.8965H18.0968C17.7008 16.015 16.9813 16.9795 16.0533 17.682C16.0538 17.6815 16.0543 17.6815 16.0548 17.681L19.1498 20.3C18.9308 20.499 22.4453 17.8965 22.4453 12.8965C22.4453 12.226 22.3763 11.5715 22.2508 10.938Z" fill="#1565C0"/>
</svg>
