<svg width="42" height="40" viewBox="0 0 42 40" fill="none" xmlns="http://www.w3.org/2000/svg">
<path d="M41.8147 18.9854C41.9388 18.0513 42.0007 17.1099 42 16.1676C42 15.9649 42 15.7659 41.9905 15.568C41.9821 15.2335 41.9684 14.9541 41.9482 14.6897C41.9 13.9646 41.8127 13.2427 41.6866 12.5272C41.6669 12.4073 41.6473 12.2952 41.627 12.1837C41.5919 11.9858 41.552 11.7874 41.5079 11.5949C41.4829 11.4786 41.4572 11.3623 41.4286 11.2526C41.3911 11.0889 41.3512 10.9253 41.3095 10.7688C40.2326 6.66513 37.9516 2.98334 34.764 0.20382L34.5305 0L34.3875 0.275761C34.1931 0.65162 34.0273 1.04186 33.8918 1.44306C33.6021 2.30662 33.4552 3.21215 33.4569 4.12358C33.4569 4.58813 33.4946 5.05189 33.5695 5.51029V5.59361L33.588 5.6122C33.6614 6.02469 33.766 6.43098 33.9008 6.82747C32.1843 6.54872 30.425 6.7367 28.805 7.37201C27.185 8.00731 25.7631 9.06683 24.6868 10.4408L24.4091 10.7934L24.8542 10.8383C24.8935 10.8425 28.8639 11.2418 32.4208 11.8006C33.9085 12.0229 35.3754 12.3686 36.8065 12.8342C36.8114 12.8345 36.8164 12.8345 36.8213 12.8342C36.8255 12.8342 36.8285 12.8378 36.8327 12.839C37.0384 12.8921 37.2177 13.0191 37.337 13.1959C37.4563 13.3728 37.5073 13.5874 37.4805 13.7994C37.4536 14.0114 37.3507 14.2063 37.1912 14.3474C37.0316 14.4884 36.8264 14.5661 36.614 14.5656H0.28837C0.269299 14.567 0.250484 14.5708 0.232369 14.577C0.198547 14.5809 0.16693 14.5958 0.142403 14.6196C0.137041 14.6238 0.130478 14.6262 0.125712 14.631C0.110993 14.6457 0.0982025 14.6622 0.087602 14.6801C0.0804979 14.689 0.0740958 14.6984 0.0685106 14.7083C0.062225 14.7246 0.0576629 14.7415 0.0548376 14.7587C0.0503124 14.7707 0.0469042 14.7831 0.0446919 14.7958C0.0154979 15.2449 0 15.7053 0 16.1634C0.0104967 17.3294 0.106479 18.493 0.28717 19.6449L0.321753 19.8493H12.2108C14.2001 19.8451 16.1471 20.4272 17.8113 21.5238C21.3199 24.0418 22.9489 30.1708 22.9655 30.235C23.0114 30.4029 24.1148 34.3664 26.5743 36.418C27.3685 37.1748 28.2549 37.8271 29.2124 38.3593C32.052 39.9365 35.3723 40.3971 38.5301 39.6519C38.5372 39.6519 38.542 39.6453 38.5492 39.6429C38.5639 39.6377 38.578 39.631 38.5914 39.6231C38.6071 39.6146 38.6217 39.6044 38.6349 39.5925C38.6403 39.5877 38.6474 39.5859 38.6522 39.5805C38.657 39.5751 38.6594 39.5667 38.6641 39.5607C38.6836 39.5354 38.698 39.5065 38.7064 39.4756C38.7105 39.4605 38.7131 39.445 38.7142 39.4294C38.7159 39.4131 38.7159 39.3966 38.7142 39.3803C38.7142 39.3719 38.7142 39.3641 38.7142 39.3557C38.7142 39.3473 38.7076 39.3431 38.7046 39.3359C38.6992 39.32 38.6923 39.3048 38.6838 39.2903C38.676 39.277 38.667 39.2643 38.657 39.2526C38.6516 39.2466 38.6493 39.2388 38.6433 39.2334C36.6845 37.3808 35.1818 35.0942 34.2547 32.5552C38.4074 29.172 41.1131 24.3155 41.8147 18.9854Z" fill="#0CAF60"/>
<path d="M24.9739 36.9175C24.9769 36.9009 24.9781 36.884 24.9775 36.8672C24.9781 36.8582 24.9781 36.8491 24.9775 36.8402C24.9775 36.8342 24.9727 36.8294 24.9715 36.8234C24.9679 36.8072 24.9625 36.7916 24.9554 36.7766C24.9494 36.7615 24.9418 36.747 24.9328 36.7335C24.9292 36.7287 24.9287 36.7227 24.9245 36.7179C24.4136 36.0824 23.9576 35.4043 23.5613 34.6909C23.5496 34.6723 23.5354 34.6556 23.519 34.6411C23.5147 34.6357 23.5101 34.6305 23.5053 34.6255C23.4848 34.6086 23.4616 34.5953 23.4368 34.5859C23.432 34.5859 23.4284 34.5811 23.4237 34.5793C23.4031 34.5733 23.3819 34.5701 23.3605 34.5697C23.3509 34.5677 23.3411 34.5663 23.3313 34.5655C23.1883 34.5757 22.5437 34.5835 22.1171 34.5889C21.9336 34.5889 21.7852 34.5931 21.7269 34.5943H21.5928C20.9767 34.6057 20.3494 34.5871 19.7136 34.5344C17.127 34.3228 14.6157 33.5547 12.3496 32.2819C8.77071 30.2723 5.95893 27.1203 4.35821 23.3237C4.0774 22.6509 3.83687 21.9618 3.6379 21.2601C3.6379 21.2553 3.63253 21.2517 3.63074 21.2469C3.62463 21.231 3.61684 21.2157 3.6075 21.2014C3.58278 21.1632 3.54927 21.1314 3.50979 21.109C3.49519 21.1026 3.48004 21.0976 3.46452 21.0941C3.44936 21.0894 3.4338 21.0862 3.41804 21.0845C3.41268 21.0845 3.40791 21.0845 3.40255 21.0845H0.88235C0.863 21.0901 0.842899 21.0925 0.822785 21.0916C0.817059 21.0941 0.811479 21.0969 0.806094 21.1001C0.790466 21.1056 0.775476 21.1128 0.761402 21.1217C0.748333 21.1289 0.735959 21.1373 0.724456 21.1468C0.712751 21.1575 0.702182 21.1693 0.692891 21.1822C0.683198 21.1939 0.674603 21.2066 0.667254 21.2199C0.660777 21.2338 0.655591 21.2483 0.651763 21.2631C0.646851 21.2789 0.64366 21.2952 0.642236 21.3117C0.642236 21.3183 0.638672 21.3237 0.638672 21.3303C0.64006 21.3402 0.642056 21.35 0.644636 21.3596C0.64406 21.3698 0.64406 21.3801 0.644636 21.3902C1.04665 22.986 1.6348 24.5283 2.39686 25.9851C4.43254 29.8634 7.60748 33.0155 11.4887 35.0116C11.5636 36.2986 12.1019 37.5141 13.003 38.4305C13.9041 39.347 15.1062 39.9016 16.3843 39.9907H16.3915H16.401H16.4159C16.4463 39.9906 16.4765 39.9847 16.5047 39.9733C16.5149 39.9681 16.5246 39.962 16.5339 39.9553C16.55 39.9474 16.5652 39.9378 16.5792 39.9266C16.5978 39.9037 16.6155 39.8801 16.6322 39.8558C16.6372 39.8434 16.6412 39.8305 16.6441 39.8174C16.6498 39.8039 16.6542 39.7899 16.6572 39.7755C16.7816 38.7948 17.1295 37.8563 17.6736 37.0332C18.5018 37.1685 19.3375 37.2518 20.176 37.2826C20.4328 37.2946 20.7003 37.3006 20.9934 37.3006C21.053 37.3006 21.1126 37.3006 21.1591 37.3006C22.1123 37.2928 23.9205 37.2293 24.7642 37.1165C24.7707 37.1165 24.7761 37.1118 24.7827 37.11C24.8014 37.1061 24.8197 37.0998 24.8369 37.0914C24.848 37.0862 24.8588 37.0802 24.8691 37.0734C24.8744 37.0692 24.881 37.068 24.8863 37.0638C24.8928 37.057 24.8987 37.0498 24.9042 37.0422C24.9161 37.0306 24.9267 37.0177 24.9358 37.0038C24.9439 36.9907 24.9506 36.9769 24.9561 36.9625C24.9635 36.9481 24.9695 36.9331 24.9739 36.9175Z" fill="white"/>
<path d="M8.28675 21.2378C8.2703 21.2103 8.25303 21.1833 8.23493 21.1569C8.22463 21.1482 8.21368 21.1404 8.20217 21.1335C8.18863 21.1219 8.17382 21.1118 8.15806 21.1035C8.14848 21.1006 8.13876 21.0981 8.12889 21.0963C8.10831 21.0892 8.08683 21.085 8.06511 21.0837H5.28516L5.38047 21.4009C5.4472 21.6221 5.51988 21.844 5.59615 22.0604C6.976 26.002 9.75605 29.2906 13.4011 31.2932C15.6502 32.5372 19.2935 33.3736 22.4661 33.3736H22.5513C22.6161 33.3736 22.6782 33.3476 22.724 33.3015C22.7698 33.2555 22.7956 33.1929 22.7956 33.1277V33.0264L22.7592 32.9886C22.5067 32.36 22.2917 31.7168 22.1152 31.0624C22.1152 31.0546 22.1092 31.048 22.1074 31.0402C22.1044 31.0276 22.1002 31.0154 22.0949 31.0036C22.0828 30.9765 22.0662 30.9516 22.046 30.9299C22.0336 30.9174 22.0198 30.9064 22.0049 30.8969C21.995 30.8896 21.9844 30.8832 21.9734 30.8777C21.9558 30.8703 21.9374 30.8651 21.9185 30.8621C21.91 30.859 21.9012 30.8564 21.8923 30.8543C21.7297 30.8423 21.567 30.8256 21.405 30.8064C19.575 30.6281 17.7755 30.2127 16.0512 29.5707C12.4838 27.9209 9.69923 24.9323 8.29271 21.2438C8.29271 21.2438 8.28675 21.239 8.28675 21.2378Z" fill="white"/>
<path d="M10.0908 21.3848C10.0933 21.4008 10.0975 21.4165 10.1033 21.4316C10.1033 21.4316 10.1033 21.4364 10.1033 21.4388C11.1365 23.3847 12.6109 25.0581 14.407 26.3233C16.2031 27.5885 18.2704 28.4099 20.441 28.7207C20.4592 28.7227 20.4775 28.7237 20.4958 28.7237C20.5655 28.7237 20.6344 28.7079 20.6973 28.6774C20.7602 28.647 20.8156 28.6028 20.8592 28.548C20.9097 28.4854 20.9437 28.411 20.9577 28.3316C20.9718 28.2522 20.9656 28.1705 20.9396 28.0942L20.2944 26.1835C20.2565 26.0715 20.1907 25.9712 20.1033 25.8922C20.0159 25.8132 19.9097 25.758 19.7951 25.732C17.0932 25.0983 14.2643 23.2314 12.9155 21.193C12.9113 21.1864 12.9041 21.1828 12.8994 21.1768C12.8887 21.1636 12.8767 21.1515 12.8636 21.1408C12.8518 21.131 12.839 21.1224 12.8255 21.115C12.797 21.0998 12.7658 21.0905 12.7337 21.0875C12.7267 21.0857 12.7195 21.0843 12.7123 21.0833H10.3238H10.3172C10.3002 21.085 10.2834 21.0884 10.2671 21.0934C10.2519 21.0963 10.237 21.1006 10.2225 21.106H10.2153C10.2057 21.1126 10.1965 21.1198 10.1879 21.1276C10.1729 21.1371 10.1589 21.1481 10.1462 21.1606C10.1365 21.1723 10.128 21.185 10.1206 21.1984C10.1115 21.2113 10.1037 21.2252 10.0974 21.2397C10.092 21.2565 10.0886 21.2738 10.0872 21.2913C10.0838 21.3026 10.0814 21.3143 10.0801 21.326C10.0801 21.326 10.0801 21.3303 10.0801 21.3333C10.0818 21.3508 10.0854 21.3681 10.0908 21.3848Z" fill="white"/>
</svg>
