<svg width="192" height="191" viewBox="0 0 192 191" fill="none" xmlns="http://www.w3.org/2000/svg">
<path d="M76.5169 0.000976562H68.8906V7.62722H76.5169V0.000976562Z" fill="white"/>
<path d="M68.8919 7.62793H61.2656V15.2542H68.8919V7.62793Z" fill="white"/>
<path d="M121.747 7.62793H114.121V15.2542H121.747V7.62793Z" fill="white"/>
<path d="M129.091 7.62793H121.465V15.2542H129.091V7.62793Z" fill="white"/>
<path d="M76.5169 7.62793H68.8906V15.2542H76.5169V7.62793Z" fill="white"/>
<path d="M91.7708 7.62793H84.1445V15.2542H91.7708V7.62793Z" fill="white"/>
<path d="M99.3997 7.62793H91.7734V15.2542H99.3997V7.62793Z" fill="white"/>
<path d="M76.5169 15.2539H68.8906V22.8801H76.5169V15.2539Z" fill="white"/>
<path d="M84.1419 15.2539H76.5156V22.8801H84.1419V15.2539Z" fill="white"/>
<path d="M91.7708 15.2539H84.1445V22.8801H91.7708V15.2539Z" fill="white"/>
<path d="M114.65 15.2539H107.023V22.8801H114.65V15.2539Z" fill="white"/>
<path d="M68.8919 22.8799H61.2656V30.5061H68.8919V22.8799Z" fill="white"/>
<path d="M121.751 22.8799H114.125V30.5061H121.751V22.8799Z" fill="white"/>
<path d="M76.5169 22.8799H68.8906V30.5061H76.5169V22.8799Z" fill="white"/>
<path d="M91.7708 22.8799H84.1445V30.5061H91.7708V22.8799Z" fill="white"/>
<path d="M107.025 22.8799H99.3984V30.5061H107.025V22.8799Z" fill="white"/>
<path d="M114.65 22.8799H107.023V30.5061H114.65V22.8799Z" fill="white"/>
<path d="M84.1419 30.5068H76.5156V38.1331H84.1419V30.5068Z" fill="white"/>
<path d="M99.3997 30.5068H91.7734V38.1331H99.3997V30.5068Z" fill="white"/>
<path d="M130.232 30.5068H122.605V38.1331H130.232V30.5068Z" fill="white"/>
<path d="M114.65 30.5068H107.023V38.1331H114.65V30.5068Z" fill="white"/>
<path d="M68.8919 38.1348H61.2656V45.761H68.8919V38.1348Z" fill="white"/>
<path d="M121.751 38.1348H114.125V45.761H121.751V38.1348Z" fill="white"/>
<path d="M84.1419 38.1348H76.5156V45.761H84.1419V38.1348Z" fill="white"/>
<path d="M107.025 38.1348H99.3984V45.761H107.025V38.1348Z" fill="white"/>
<path d="M68.8919 45.7607H61.2656V53.387H68.8919V45.7607Z" fill="white"/>
<path d="M121.751 45.7607H114.125V53.387H121.751V45.7607Z" fill="white"/>
<path d="M84.1419 45.7607H76.5156V53.387H84.1419V45.7607Z" fill="white"/>
<path d="M99.3997 45.7607H91.7734V53.387H99.3997V45.7607Z" fill="white"/>
<path d="M114.65 45.7607H107.023V53.387H114.65V45.7607Z" fill="white"/>
<path d="M99.3997 53.3867H91.7734V61.013H99.3997V53.3867Z" fill="white"/>
<path d="M130.232 53.3867H122.605V61.013H130.232V53.3867Z" fill="white"/>
<path d="M114.65 53.3867H107.023V61.013H114.65V53.3867Z" fill="white"/>
<path d="M7.88015 61.0127H0.253906V68.6389H7.88015V61.0127Z" fill="white"/>
<path d="M15.5051 61.0127H7.87891V68.6389H15.5051V61.0127Z" fill="white"/>
<path d="M23.1301 61.0127H15.5039V68.6389H23.1301V61.0127Z" fill="white"/>
<path d="M30.7591 61.0127H23.1328V68.6389H30.7591V61.0127Z" fill="white"/>
<path d="M38.3841 61.0127H30.7578V68.6389H38.3841V61.0127Z" fill="white"/>
<path d="M53.638 61.0127H46.0117V68.6389H53.638V61.0127Z" fill="white"/>
<path d="M61.263 61.0127H53.6367V68.6389H61.263V61.0127Z" fill="white"/>
<path d="M68.8919 61.0127H61.2656V68.6389H68.8919V61.0127Z" fill="white"/>
<path d="M76.5169 61.0127H68.8906V68.6389H76.5169V61.0127Z" fill="white"/>
<path d="M84.1419 61.0127H76.5156V68.6389H84.1419V61.0127Z" fill="white"/>
<path d="M99.3997 61.0127H91.7734V68.6389H99.3997V61.0127Z" fill="white"/>
<path d="M130.232 61.0127H122.605V68.6389H130.232V61.0127Z" fill="white"/>
<path d="M107.025 61.0127H99.3984V68.6389H107.025V61.0127Z" fill="white"/>
<path d="M114.65 61.0127H107.023V68.6389H114.65V61.0127Z" fill="white"/>
<path d="M15.5051 68.6396H7.87891V76.2659H15.5051V68.6396Z" fill="white"/>
<path d="M46.013 68.6396H38.3867V76.2659H46.013V68.6396Z" fill="white"/>
<path d="M76.5169 68.6396H68.8906V76.2659H76.5169V68.6396Z" fill="white"/>
<path d="M23.1301 76.2656H15.5039V83.8919H23.1301V76.2656Z" fill="white"/>
<path d="M30.7591 76.2656H23.1328V83.8919H30.7591V76.2656Z" fill="white"/>
<path d="M46.013 76.2656H38.3867V83.8919H46.013V76.2656Z" fill="white"/>
<path d="M53.638 76.2656H46.0117V83.8919H53.638V76.2656Z" fill="white"/>
<path d="M61.263 76.2656H53.6367V83.8919H61.263V76.2656Z" fill="white"/>
<path d="M68.8919 76.2656H61.2656V83.8919H68.8919V76.2656Z" fill="white"/>
<path d="M76.5169 76.2656H68.8906V83.8919H76.5169V76.2656Z" fill="white"/>
<path d="M91.7708 76.2656H84.1445V83.8919H91.7708V76.2656Z" fill="white"/>
<path d="M99.3997 76.2656H91.7734V83.8919H99.3997V76.2656Z" fill="white"/>
<path d="M107.025 76.2656H99.3984V83.8919H107.025V76.2656Z" fill="white"/>
<path d="M114.65 76.2656H107.023V83.8919H114.65V76.2656Z" fill="white"/>
<path d="M122.275 76.2656H114.648V83.8919H122.275V76.2656Z" fill="white"/>
<path d="M129.9 76.2656H122.273V83.8919H129.9V76.2656Z" fill="white"/>
<path d="M137.532 76.2656H129.906V83.8919H137.532V76.2656Z" fill="white"/>
<path d="M145.157 76.2656H137.531V83.8919H145.157V76.2656Z" fill="white"/>
<path d="M160.407 76.2656H152.781V83.8919H160.407V76.2656Z" fill="white"/>
<path d="M168.032 76.2656H160.406V83.8919H168.032V76.2656Z" fill="white"/>
<path d="M183.29 76.2656H175.664V83.8919H183.29V76.2656Z" fill="white"/>
<path d="M190.915 76.2656H183.289V83.8919H190.915V76.2656Z" fill="white"/>
<path d="M23.1301 83.8936H15.5039V91.5198H23.1301V83.8936Z" fill="white"/>
<path d="M30.7591 83.8936H23.1328V91.5198H30.7591V83.8936Z" fill="white"/>
<path d="M68.8919 83.8936H61.2656V91.5198H68.8919V83.8936Z" fill="white"/>
<path d="M76.5169 83.8936H68.8906V91.5198H76.5169V83.8936Z" fill="white"/>
<path d="M84.1419 83.8936H76.5156V91.5198H84.1419V83.8936Z" fill="white"/>
<path d="M91.7708 83.8936H84.1445V91.5198H91.7708V83.8936Z" fill="white"/>
<path d="M122.279 83.8936H114.652V91.5198H122.279V83.8936Z" fill="white"/>
<path d="M129.9 83.8936H122.273V91.5198H129.9V83.8936Z" fill="white"/>
<path d="M137.532 83.8936H129.906V91.5198H137.532V83.8936Z" fill="white"/>
<path d="M145.157 83.8936H137.531V91.5198H145.157V83.8936Z" fill="white"/>
<path d="M152.782 83.8936H145.156V91.5198H152.782V83.8936Z" fill="white"/>
<path d="M160.407 83.8936H152.781V91.5198H160.407V83.8936Z" fill="white"/>
<path d="M190.915 83.8936H183.289V91.5198H190.915V83.8936Z" fill="white"/>
<path d="M46.013 91.5195H38.3867V99.1458H46.013V91.5195Z" fill="white"/>
<path d="M53.638 91.5195H46.0117V99.1458H53.638V91.5195Z" fill="white"/>
<path d="M76.5169 91.5195H68.8906V99.1458H76.5169V91.5195Z" fill="white"/>
<path d="M91.7708 91.5195H84.1445V99.1458H91.7708V91.5195Z" fill="white"/>
<path d="M114.65 91.5195H107.023V99.1458H114.65V91.5195Z" fill="white"/>
<path d="M122.279 91.5195H114.652V99.1458H122.279V91.5195Z" fill="white"/>
<path d="M137.532 91.5195H129.906V99.1458H137.532V91.5195Z" fill="white"/>
<path d="M145.157 91.5195H137.531V99.1458H145.157V91.5195Z" fill="white"/>
<path d="M160.407 91.5195H152.781V99.1458H160.407V91.5195Z" fill="white"/>
<path d="M175.665 91.5195H168.039V99.1458H175.665V91.5195Z" fill="white"/>
<path d="M183.29 91.5195H175.664V99.1458H183.29V91.5195Z" fill="white"/>
<path d="M190.915 91.5195H183.289V99.1458H190.915V91.5195Z" fill="white"/>
<path d="M7.88015 99.1455H0.253906V106.772H7.88015V99.1455Z" fill="white"/>
<path d="M15.5051 99.1455H7.87891V106.772H15.5051V99.1455Z" fill="white"/>
<path d="M23.1301 99.1455H15.5039V106.772H23.1301V99.1455Z" fill="white"/>
<path d="M38.3841 99.1455H30.7578V106.772H38.3841V99.1455Z" fill="white"/>
<path d="M68.8919 99.1455H61.2656V106.772H68.8919V99.1455Z" fill="white"/>
<path d="M76.5169 99.1455H68.8906V106.772H76.5169V99.1455Z" fill="white"/>
<path d="M84.1419 99.1455H76.5156V106.772H84.1419V99.1455Z" fill="white"/>
<path d="M99.3997 99.1455H91.7734V106.772H99.3997V99.1455Z" fill="white"/>
<path d="M129.9 99.1455H122.273V106.772H129.9V99.1455Z" fill="white"/>
<path d="M168.032 99.1455H160.406V106.772H168.032V99.1455Z" fill="white"/>
<path d="M183.29 99.1455H175.664V106.772H183.29V99.1455Z" fill="white"/>
<path d="M7.88015 106.772H0.253906V114.399H7.88015V106.772Z" fill="white"/>
<path d="M23.1301 106.772H15.5039V114.399H23.1301V106.772Z" fill="white"/>
<path d="M30.7591 106.772H23.1328V114.399H30.7591V106.772Z" fill="white"/>
<path d="M46.013 106.772H38.3867V114.399H46.013V106.772Z" fill="white"/>
<path d="M53.638 106.772H46.0117V114.399H53.638V106.772Z" fill="white"/>
<path d="M122.275 106.772H114.648V114.399H122.275V106.772Z" fill="white"/>
<path d="M129.9 106.772H122.273V114.399H129.9V106.772Z" fill="white"/>
<path d="M145.157 114.113H137.531V121.74H145.157V114.113Z" fill="white"/>
<path d="M168.032 106.772H160.406V114.399H168.032V106.772Z" fill="white"/>
<path d="M183.29 106.772H175.664V114.399H183.29V106.772Z" fill="white"/>
<path d="M190.915 106.772H183.289V114.399H190.915V106.772Z" fill="white"/>
<path d="M7.88015 114.399H0.253906V122.026H7.88015V114.399Z" fill="white"/>
<path d="M68.8919 114.399H61.2656V122.026H68.8919V114.399Z" fill="white"/>
<path d="M99.3997 114.399H91.7734V122.026H99.3997V114.399Z" fill="white"/>
<path d="M114.65 114.399H107.023V122.026H114.65V114.399Z" fill="white"/>
<path d="M122.279 114.399H114.652V122.026H122.279V114.399Z" fill="white"/>
<path d="M129.9 114.399H122.273V122.026H129.9V114.399Z" fill="white"/>
<path d="M137.532 114.399H129.906V122.026H137.532V114.399Z" fill="white"/>
<path d="M145.157 121.741H137.531V129.367H145.157V121.741Z" fill="white"/>
<path d="M152.782 114.399H145.156V122.026H152.782V114.399Z" fill="white"/>
<path d="M160.407 114.399H152.781V122.026H160.407V114.399Z" fill="white"/>
<path d="M168.032 114.399H160.406V122.026H168.032V114.399Z" fill="white"/>
<path d="M190.915 114.399H183.289V122.026H190.915V114.399Z" fill="white"/>
<path d="M7.88015 122.025H0.253906V129.652H7.88015V122.025Z" fill="white"/>
<path d="M30.7591 122.025H23.1328V129.652H30.7591V122.025Z" fill="white"/>
<path d="M38.3841 122.025H30.7578V129.652H38.3841V122.025Z" fill="white"/>
<path d="M46.013 122.025H38.3867V129.652H46.013V122.025Z" fill="white"/>
<path d="M53.638 122.025H46.0117V129.652H53.638V122.025Z" fill="white"/>
<path d="M76.5169 122.025H68.8906V129.652H76.5169V122.025Z" fill="white"/>
<path d="M84.1419 122.025H76.5156V129.652H84.1419V122.025Z" fill="white"/>
<path d="M99.3997 122.025H91.7734V129.652H99.3997V122.025Z" fill="white"/>
<path d="M107.025 122.025H99.3984V129.652H107.025V122.025Z" fill="white"/>
<path d="M114.65 122.025H107.023V129.652H114.65V122.025Z" fill="white"/>
<path d="M129.9 122.025H122.273V129.652H129.9V122.025Z" fill="white"/>
<path d="M137.532 122.025H129.906V129.652H137.532V122.025Z" fill="white"/>
<path d="M145.157 129.367H137.531V136.993H145.157V129.367Z" fill="white"/>
<path d="M145.157 69.168H137.531V76.7942H145.157V69.168Z" fill="white"/>
<path d="M152.782 122.025H145.156V129.652H152.782V122.025Z" fill="white"/>
<path d="M152.782 61.8262H145.156V69.4524H152.782V61.8262Z" fill="white"/>
<path d="M160.407 122.025H152.781V129.652H160.407V122.025Z" fill="white"/>
<path d="M160.407 61.8262H152.781V69.4524H160.407V61.8262Z" fill="white"/>
<path d="M175.665 122.025H168.039V129.652H175.665V122.025Z" fill="white"/>
<path d="M175.665 61.8262H168.039V69.4524H175.665V61.8262Z" fill="white"/>
<path d="M68.8919 129.652H61.2656V137.279H68.8919V129.652Z" fill="white"/>
<path d="M84.1419 129.652H76.5156V137.279H84.1419V129.652Z" fill="white"/>
<path d="M114.65 129.652H107.023V137.279H114.65V129.652Z" fill="white"/>
<path d="M122.279 129.652H114.652V137.279H122.279V129.652Z" fill="white"/>
<path d="M129.9 129.652H122.273V137.279H129.9V129.652Z" fill="white"/>
<path d="M68.8919 137.278H61.2656V144.905H68.8919V137.278Z" fill="white"/>
<path d="M76.5169 137.278H68.8906V144.905H76.5169V137.278Z" fill="white"/>
<path d="M84.1419 137.278H76.5156V144.905H84.1419V137.278Z" fill="white"/>
<path d="M91.7708 137.278H84.1445V144.905H91.7708V137.278Z" fill="white"/>
<path d="M99.3997 137.278H91.7734V144.905H99.3997V137.278Z" fill="white"/>
<path d="M91.7708 144.904H84.1445V152.531H91.7708V144.904Z" fill="white"/>
<path d="M129.9 144.904H122.273V152.531H129.9V144.904Z" fill="white"/>
<path d="M68.8919 152.532H61.2656V160.158H68.8919V152.532Z" fill="white"/>
<path d="M84.1419 152.532H76.5156V160.158H84.1419V152.532Z" fill="white"/>
<path d="M91.7708 152.532H84.1445V160.158H91.7708V152.532Z" fill="white"/>
<path d="M122.275 152.532H114.648V160.158H122.275V152.532Z" fill="white"/>
<path d="M68.8919 160.158H61.2656V167.784H68.8919V160.158Z" fill="white"/>
<path d="M84.1419 160.158H76.5156V167.784H84.1419V160.158Z" fill="white"/>
<path d="M99.3997 160.158H91.7734V167.784H99.3997V160.158Z" fill="white"/>
<path d="M107.025 160.158H99.3984V167.784H107.025V160.158Z" fill="white"/>
<path d="M122.275 160.158H114.648V167.784H122.275V160.158Z" fill="white"/>
<path d="M68.8919 167.784H61.2656V175.41H68.8919V167.784Z" fill="white"/>
<path d="M76.5169 167.784H68.8906V175.41H76.5169V167.784Z" fill="white"/>
<path d="M107.025 167.784H99.3984V175.41H107.025V167.784Z" fill="white"/>
<path d="M114.65 167.784H107.023V175.41H114.65V167.784Z" fill="white"/>
<path d="M129.9 167.784H122.273V175.41H129.9V167.784Z" fill="white"/>
<path d="M68.8919 175.411H61.2656V183.037H68.8919V175.411Z" fill="white"/>
<path d="M99.3997 175.411H91.7734V183.037H99.3997V175.411Z" fill="white"/>
<path d="M107.025 175.411H99.3984V183.037H107.025V175.411Z" fill="white"/>
<path d="M122.279 175.411H114.652V183.037H122.279V175.411Z" fill="white"/>
<path d="M129.9 175.411H122.273V183.037H129.9V175.411Z" fill="white"/>
<path d="M68.8919 183.037H61.2656V190.663H68.8919V183.037Z" fill="white"/>
<path d="M99.3997 183.037H91.7734V190.663H99.3997V183.037Z" fill="white"/>
<path d="M114.65 183.037H107.023V190.663H114.65V183.037Z" fill="white"/>
<path d="M122.275 183.037H114.648V190.663H122.275V183.037Z" fill="white"/>
<path d="M34.8995 136.551H18.0921C14.2085 136.542 10.4251 137.783 7.30064 140.089C4.17623 142.396 1.8766 145.646 0.741484 149.36C0.510239 150.13 0.332158 150.915 0.208499 151.709C0.0691808 152.611 -0.000523669 153.522 2.96175e-06 154.435V171.643C0.0326153 176.413 1.95567 180.975 5.34735 184.328C8.73903 187.682 13.3224 189.553 18.0921 189.532H34.8995C39.6695 189.553 44.2531 187.682 47.6448 184.328C51.0366 180.974 52.9594 176.411 52.9917 171.641V154.435C52.9579 149.666 51.0343 145.105 47.6427 141.753C44.2511 138.4 39.6684 136.529 34.8995 136.551ZM45.0424 171.643C45.0126 174.306 43.9276 176.848 42.0255 178.712C40.1234 180.576 37.5595 181.609 34.8966 181.585H18.0936C15.4309 181.609 12.8673 180.576 10.9653 178.712C9.0632 176.849 7.97802 174.307 7.9478 171.644V154.435C7.94615 152.778 8.36819 151.147 9.17381 149.699C9.93123 148.343 10.992 147.179 12.2733 146.3C13.9848 145.124 16.0138 144.496 18.0907 144.5H34.8995C37.5612 144.476 40.1238 145.508 42.0253 147.371C43.9268 149.234 45.0118 151.774 45.0424 154.436V171.643Z" fill="white"/>
<path d="M34.8995 1.46893H18.0921C14.2085 1.46002 10.4251 2.7005 7.30064 5.00713C4.17623 7.31375 1.8766 10.5642 0.741484 14.2782C0.510239 15.0482 0.332158 15.8331 0.208499 16.6274C0.0691808 17.5291 -0.000523669 18.4402 2.96175e-06 19.3526V36.5608C0.0326153 41.3305 1.95567 45.8925 5.34735 49.2462C8.73903 52.5999 13.3224 54.4714 18.0921 54.4503H34.8995C39.6695 54.4714 44.2531 52.5997 47.6448 49.2457C51.0366 45.8916 52.9594 41.3293 52.9917 36.5593V19.3526C52.9579 14.5838 51.0343 10.0231 47.6427 6.67057C44.2511 3.31805 39.6684 1.44743 34.8995 1.46893ZM45.0424 36.5608C45.0126 39.2237 43.9276 41.766 42.0255 43.6298C40.1234 45.4937 37.5595 46.5268 34.8966 46.5025H18.0936C15.4309 46.5268 12.8673 45.4939 10.9653 43.6304C9.0632 41.7668 7.97802 39.2249 7.9478 36.5623V19.3526C7.94615 17.6955 8.36819 16.0655 9.17381 14.6174C9.93123 13.2606 10.992 12.0973 12.2733 11.2183C13.9848 10.0416 16.0138 9.41378 18.0907 9.4182H34.8995C37.5612 9.39392 40.1238 10.4263 42.0253 12.289C43.9268 14.1516 45.0118 16.6924 45.0424 19.354V36.5608Z" fill="white"/>
<path d="M172.919 138.019H156.112C152.228 138.01 148.445 139.25 145.32 141.557C142.196 143.864 139.896 147.114 138.761 150.828C138.53 151.598 138.352 152.383 138.228 153.177C138.089 154.079 138.019 154.99 138.02 155.902V173.111C138.052 177.88 139.975 182.442 143.367 185.796C146.759 189.15 151.342 191.021 156.112 191H172.919C177.689 191.021 182.273 189.149 185.664 185.795C189.056 182.441 190.979 177.879 191.011 173.109V155.902C190.977 151.134 189.054 146.573 185.662 143.22C182.271 139.868 177.688 137.997 172.919 138.019ZM183.062 173.111C183.032 175.774 181.947 178.316 180.045 180.18C178.143 182.043 175.579 183.077 172.916 183.052H156.113C153.45 183.077 150.887 182.044 148.985 180.18C147.083 178.317 145.998 175.775 145.967 173.112V155.902C145.966 154.245 146.388 152.615 147.193 151.167C147.951 149.81 149.012 148.647 150.293 147.768C152.004 146.591 154.033 145.964 156.11 145.968H172.919C175.581 145.944 178.143 146.976 180.045 148.839C181.946 150.701 183.031 153.242 183.062 155.904V173.111Z" fill="white"/>
<path d="M172.919 0.000183323H156.112C152.228 -0.00873116 148.445 1.23175 145.32 3.53838C142.196 5.845 139.896 9.09543 138.761 12.8095C138.53 13.5794 138.352 14.3643 138.228 15.1587C138.089 16.0604 138.019 16.9714 138.02 17.8838V35.0921C138.052 39.8617 139.975 44.4237 143.367 47.7774C146.759 51.1311 151.342 53.0027 156.112 52.9816H172.919C177.689 53.0027 182.273 51.1309 185.664 47.7769C189.056 44.4229 190.979 39.8605 191.011 35.0906V17.8838C190.977 13.1151 189.054 8.55433 185.662 5.20182C182.271 1.8493 177.688 -0.0213179 172.919 0.000183323ZM183.062 35.0921C183.032 37.7549 181.947 40.2972 180.045 42.1611C178.143 44.0249 175.579 45.0581 172.916 45.0338H156.113C153.45 45.0581 150.887 44.0251 148.985 42.1616C147.083 40.2981 145.998 37.7562 145.967 35.0935V17.8838C145.966 16.2267 146.388 14.5967 147.193 13.1486C147.951 11.7919 149.012 10.6286 150.293 9.74956C152.004 8.57289 154.033 7.94503 156.11 7.94945H172.919C175.581 7.92517 178.143 8.95759 180.045 10.8202C181.946 12.6829 183.031 15.2237 183.062 17.8853V35.0921Z" fill="white"/>
<path d="M21.3573 174.398C19.7266 174.411 18.1569 173.778 16.9918 172.637C15.8268 171.496 15.1611 169.94 15.1406 168.309V157.771C15.1407 156.758 15.3989 155.761 15.8909 154.874C16.3538 154.042 17.0037 153.329 17.7894 152.791C18.8389 152.069 20.0835 151.684 21.3573 151.687H31.6514C33.2815 151.672 34.8509 152.304 36.0155 153.445C37.1801 154.585 37.8447 156.141 37.8637 157.771V168.309C37.8432 169.939 37.1782 171.495 36.0141 172.636C34.8499 173.777 33.2814 174.41 31.6514 174.398H21.3573Z" fill="white"/>
<path d="M21.3573 39.3161C19.7266 39.3294 18.1569 38.6963 16.9918 37.5551C15.8268 36.414 15.1611 34.8578 15.1406 33.2271V22.6893C15.1407 21.6756 15.3989 20.6787 15.8909 19.7924C16.3538 18.9602 17.0037 18.2469 17.7894 17.7089C18.8389 16.9869 20.0835 16.6018 21.3573 16.6047H31.6514C33.2815 16.5899 34.8509 17.2221 36.0155 18.3627C37.1801 19.5033 37.8447 21.0593 37.8637 22.6893V33.2271C37.8432 34.8571 37.1782 36.4126 36.0141 37.5536C34.8499 38.6946 33.2814 39.3283 31.6514 39.3161H21.3573Z" fill="white"/>
<path d="M159.369 175.867C157.738 175.88 156.169 175.247 155.004 174.106C153.838 172.965 153.173 171.409 153.152 169.778V159.24C153.152 158.226 153.411 157.229 153.903 156.343C154.366 155.511 155.015 154.798 155.801 154.26C156.851 153.538 158.095 153.153 159.369 153.156H169.663C171.293 153.141 172.863 153.773 174.027 154.913C175.192 156.054 175.856 157.61 175.875 159.24V169.778C175.855 171.408 175.19 172.963 174.026 174.104C172.862 175.245 171.293 175.879 169.663 175.867H159.369Z" fill="white"/>
<path d="M159.369 37.8473C157.738 37.8607 156.169 37.2275 155.004 36.0864C153.838 34.9452 153.173 33.3891 153.152 31.7584V21.2205C153.152 20.2069 153.411 19.2099 153.903 18.3236C154.366 17.4914 155.015 16.7782 155.801 16.2401C156.851 15.5182 158.095 15.133 159.369 15.136H169.663C171.293 15.1211 172.863 15.7533 174.027 16.894C175.192 18.0346 175.856 19.5905 175.875 21.2205V31.7584C175.855 33.3883 175.19 34.9438 174.026 36.0848C172.862 37.2258 171.293 37.8595 169.663 37.8473H159.369Z" fill="white"/>
<path d="M102.78 70.4775H89.5651C80.6451 70.4775 73.4141 77.7086 73.4141 86.6286V99.8431C73.4141 108.763 80.6451 115.994 89.5651 115.994H102.78C111.7 115.994 118.931 108.763 118.931 99.8431V86.6286C118.931 77.7086 111.7 70.4775 102.78 70.4775Z" fill="#0CAF60"/>
<path d="M102.782 66.8066H89.5679C78.6206 66.8066 69.7461 75.6812 69.7461 86.6284V99.8429C69.7461 110.79 78.6206 119.665 89.5679 119.665H102.782C113.73 119.665 122.604 110.79 122.604 99.8429V86.6284C122.604 75.6812 113.73 66.8066 102.782 66.8066Z" stroke="#0B0E13" stroke-width="7.3414"/>
<path d="M107.919 92.4996C107.987 91.9847 108.022 91.4657 108.021 90.9462C108.021 90.8346 108.021 90.7244 108.021 90.6158C108.021 90.4308 108.01 90.2766 107.998 90.1312C107.97 89.731 107.921 89.3325 107.851 88.9375C107.839 88.8729 107.829 88.8098 107.817 88.7482C107.798 88.6395 107.776 88.5294 107.751 88.4237C107.736 88.359 107.723 88.2944 107.707 88.2342C107.687 88.1446 107.664 88.0536 107.64 87.967C107.042 85.7033 105.775 83.6725 104.006 82.1394L103.876 82.0264L103.797 82.1732C103.689 82.3807 103.598 82.5963 103.522 82.8178C103.361 83.2941 103.28 83.7935 103.28 84.2963C103.28 84.5525 103.302 84.8084 103.343 85.0612V85.1068L103.354 85.1171C103.394 85.3448 103.452 85.5692 103.527 85.7881C102.574 85.6342 101.597 85.7377 100.698 86.088C99.7985 86.4383 99.0092 87.0227 98.4114 87.7806L98.2646 87.9743L98.5113 87.9993C98.5333 87.9993 100.737 88.2225 102.711 88.5308C103.536 88.6533 104.351 88.8438 105.145 89.1005H105.154C105.267 89.1306 105.366 89.2009 105.432 89.2984C105.497 89.3959 105.525 89.5138 105.51 89.6303C105.495 89.7469 105.439 89.8541 105.351 89.9319C105.263 90.0097 105.149 90.0529 105.032 90.0534H84.8651C84.8548 90.0521 84.8445 90.0521 84.8343 90.0534H84.8196C84.8068 90.0585 84.795 90.0654 84.7843 90.0739H84.7755C84.767 90.0817 84.7597 90.0906 84.7535 90.1004C84.7496 90.1054 84.7461 90.1109 84.7432 90.1166C84.7399 90.1257 84.7375 90.135 84.7359 90.1445C84.7354 90.1513 84.7354 90.1581 84.7359 90.165C84.7197 90.4131 84.7109 90.6672 84.7109 90.9197C84.7169 91.563 84.7704 92.2049 84.8709 92.8402L84.89 92.9532H91.4899C92.594 92.951 93.6745 93.2721 94.5983 93.8768C95.9883 95.1751 96.9809 96.8418 97.46 98.6825C97.819 99.9745 98.5094 101.15 99.4627 102.093C99.9048 102.511 100.398 102.871 100.931 103.164C102.507 104.034 104.351 104.288 106.104 103.877H106.114L106.137 103.867C106.146 103.863 106.154 103.857 106.161 103.851H106.171C106.171 103.847 106.171 103.844 106.171 103.841C106.177 103.833 106.182 103.825 106.186 103.817C106.19 103.81 106.193 103.802 106.195 103.794C106.195 103.785 106.195 103.777 106.195 103.769C106.196 103.76 106.196 103.751 106.195 103.742C106.195 103.742 106.195 103.733 106.195 103.729C106.195 103.726 106.195 103.722 106.195 103.719C106.192 103.71 106.188 103.702 106.183 103.694C106.179 103.686 106.174 103.68 106.168 103.673L106.161 103.663C105.074 102.64 104.24 101.378 103.727 99.976C106.028 98.1112 107.528 95.4359 107.919 92.4996Z" fill="#EDF4FF"/>
<path d="M98.5734 102.391C98.5744 102.382 98.5744 102.373 98.5734 102.364C98.5738 102.359 98.5738 102.354 98.5734 102.349C98.5736 102.346 98.5736 102.343 98.5734 102.34C98.5715 102.331 98.5685 102.322 98.5645 102.314C98.5609 102.305 98.5565 102.298 98.5513 102.29V102.281C98.268 101.931 98.015 101.557 97.7952 101.164C97.7887 101.154 97.7808 101.144 97.7717 101.136L97.7643 101.127C97.7528 101.118 97.7399 101.111 97.7262 101.105H97.7188C97.7071 101.104 97.6953 101.104 97.6836 101.105H97.6675C97.5882 101.105 97.227 101.115 96.9935 101.118H96.7762H96.7013C96.3597 101.124 96.0122 101.114 95.6588 101.086C94.223 100.969 92.829 100.546 91.5711 99.844C89.5846 98.7351 88.0239 96.9962 87.1354 94.9018C86.9797 94.5308 86.8464 94.1508 86.7361 93.7638C86.7326 93.7551 86.7281 93.7467 86.7228 93.7388C86.7189 93.7317 86.7145 93.7249 86.7097 93.7183C86.7034 93.7118 86.6965 93.7059 86.6891 93.7007L86.6685 93.6875L86.6436 93.6787H86.6172H85.2091H85.1929H85.168H85.1577L85.1328 93.6905L85.1122 93.7051C85.1055 93.7108 85.0997 93.7172 85.0946 93.7242C85.089 93.7305 85.084 93.7374 85.0799 93.7448C85.0761 93.7523 85.0731 93.7601 85.071 93.7682C85.0701 93.777 85.0701 93.7859 85.071 93.7947C85.0708 93.7981 85.0708 93.8016 85.071 93.805C85.0707 93.8104 85.0707 93.8157 85.071 93.8211C85.071 93.8211 85.071 93.8314 85.071 93.8372C85.2941 94.7173 85.6204 95.568 86.0431 96.3715C87.1731 98.5107 88.9353 100.249 91.0895 101.35C91.131 102.061 91.4299 102.731 91.9301 103.237C92.4304 103.742 93.0977 104.048 93.8073 104.098H93.825C93.842 104.098 93.859 104.095 93.8749 104.089L93.891 104.079C93.8999 104.074 93.9083 104.069 93.916 104.062C93.9209 104.057 93.9253 104.052 93.9292 104.046C93.9354 104.039 93.9408 104.032 93.9453 104.024C93.946 104.017 93.946 104.01 93.9453 104.002C93.9487 103.995 93.9512 103.987 93.9527 103.979C94.0218 103.438 94.2148 102.92 94.5165 102.466C94.9767 102.541 95.441 102.587 95.9069 102.604C96.0538 102.604 96.2006 102.615 96.3607 102.615H96.4532C96.9832 102.615 97.9861 102.575 98.4545 102.513H98.4647L98.4941 102.503L98.5117 102.493H98.522C98.522 102.493 98.522 102.485 98.5323 102.481C98.539 102.474 98.545 102.467 98.5499 102.459C98.559 102.445 98.5654 102.429 98.569 102.412L98.5734 102.391Z" fill="#EDF4FF"/>
<path d="M89.3086 93.742C89.3039 93.732 89.298 93.7226 89.291 93.7141C89.2876 93.7079 89.2837 93.702 89.2793 93.6964C89.2733 93.6915 89.2669 93.6872 89.2602 93.6833C89.2526 93.6768 89.2442 93.6714 89.2352 93.6671H89.219C89.2073 93.6656 89.1955 93.6656 89.1838 93.6671H87.6406L87.6935 93.8418C87.7302 93.9637 87.7713 94.0871 87.8139 94.206C88.5798 96.3797 90.1226 98.1933 92.1453 99.2979C93.7135 100.058 95.4344 100.45 97.1771 100.445H97.2241C97.2599 100.445 97.2942 100.43 97.3196 100.405C97.3449 100.38 97.3592 100.345 97.3592 100.31V100.254L97.3386 100.233C97.1986 99.8863 97.0795 99.5313 96.9818 99.1702C96.9818 99.1702 96.9818 99.1629 96.9818 99.1585C96.9825 99.1517 96.9825 99.1447 96.9818 99.1379C96.978 99.129 96.973 99.1206 96.9671 99.113L96.9539 99.0968C96.9467 99.0902 96.9389 99.0843 96.9305 99.0792L96.9128 99.0689C96.903 99.0646 96.8926 99.0617 96.882 99.0601H96.8673C96.7763 99.0601 96.6867 99.0439 96.5971 99.0337C95.5813 98.9353 94.5825 98.7064 93.6253 98.3524C91.645 97.4421 90.0994 95.7931 89.3189 93.7581L89.3086 93.742Z" fill="#EDF4FF"/>
<path d="M90.3062 93.8218C90.3053 93.8306 90.3053 93.8394 90.3062 93.8482C90.8796 94.9217 91.698 95.8448 92.695 96.5428C93.6919 97.2408 94.8394 97.694 96.0443 97.8655H96.0751C96.1138 97.8654 96.1519 97.8566 96.1867 97.8398C96.2215 97.8231 96.2521 97.7988 96.2762 97.7686C96.3041 97.7341 96.3228 97.6931 96.3305 97.6494C96.3382 97.6057 96.3348 97.5609 96.3203 97.5189L95.962 96.4648C95.941 96.4029 95.9044 96.3474 95.8558 96.3037C95.8073 96.26 95.7482 96.2295 95.6845 96.2151C94.16 95.849 92.8104 94.964 91.867 93.7117L91.8582 93.7029C91.8526 93.6953 91.8462 93.6885 91.8391 93.6823L91.8171 93.6676L91.795 93.6589H91.7672H90.4252C90.4159 93.658 90.4066 93.658 90.3973 93.6589H90.3723C90.3671 93.6624 90.3622 93.6664 90.3576 93.6706C90.3492 93.6757 90.3413 93.6815 90.3341 93.6882C90.3287 93.6946 90.3237 93.7015 90.3194 93.7088C90.3142 93.7161 90.3098 93.724 90.3062 93.7323C90.3053 93.7415 90.3053 93.7509 90.3062 93.7601C90.3058 93.7665 90.3058 93.7729 90.3062 93.7792C90.3042 93.7933 90.3042 93.8077 90.3062 93.8218Z" fill="#EDF4FF"/>
</svg>
